<?xml version="1.0" encoding="UTF-8" standalone="no"?>
<svg width="17px" height="18px" viewBox="0 0 17 18" version="1.1" xmlns="http://www.w3.org/2000/svg" xmlns:xlink="http://www.w3.org/1999/xlink">
    <!-- Generator: Sketch 46.2 (44496) - http://www.bohemiancoding.com/sketch -->
    <title>1 copy 4</title>
    <desc>Created with Sketch.</desc>
    <defs></defs>
    <g id="Page-1" stroke="none" stroke-width="1" fill="none" fill-rule="evenodd">
        <g id="1280笔详" transform="translate(-393.000000, -103.000000)">
            <g id="Group-61" transform="translate(320.000000, 40.000000)">
                <g id="Group-22" transform="translate(40.000000, 30.000000)">
                    <g id="Group-21">
                        <g id="Group-90" transform="translate(33.000000, 33.660000)">
                            <g id="1-copy-4" transform="translate(0.500000, 0.510000)">
                                <path d="M13.6568542,5.36156563 L13.6568542,3.20600867 C13.6568542,2.75534431 13.298682,2.39000867 12.8568542,2.39000867 L10.763171,2.39000867 L10.763171,2.39000867 C10.494522,2.39000867 10.2371716,2.28191502 10.0490981,2.09008008 L8.56568542,0.576999133 C8.25326599,0.258331311 7.74673401,0.258331311 7.43431458,0.576999133 L5.95090189,2.09008008 L5.95090189,2.09008008 C5.76282841,2.28191502 5.50547803,2.39000867 5.23682905,2.39000867 L3.14314575,2.39000867 C2.70131795,2.39000867 2.34314575,2.75534431 2.34314575,3.20600867 L2.34314575,5.36156563 L2.34314575,5.36156563 C2.34314575,5.623353 2.24048844,5.87470179 2.05721859,6.06163704 L0.565685425,7.58300087 C0.253265992,7.90166869 0.253265992,8.41833131 0.565685425,8.73699913 L2.05721859,10.258363 L2.05721859,10.258363 C2.24048844,10.4452982 2.34314575,10.696647 2.34314575,10.9584344 L2.34314575,13.1139913 C2.34314575,13.5646557 2.70131795,13.9299913 3.14314575,13.9299913 L5.23682905,13.9299913 L5.23682905,13.9299913 C5.50547803,13.9299913 5.76282841,14.038085 5.95090189,14.2299199 L7.43431458,15.7430009 C7.74673401,16.0616687 8.25326599,16.0616687 8.56568542,15.7430009 L10.0490981,14.2299199 L10.0490981,14.2299199 C10.2371716,14.038085 10.494522,13.9299913 10.763171,13.9299913 L12.8568542,13.9299913 C13.298682,13.9299913 13.6568542,13.5646557 13.6568542,13.1139913 L13.6568542,10.9584344 L13.6568542,10.9584344 C13.6568542,10.696647 13.7595116,10.4452982 13.9427814,10.258363 L15.4343146,8.73699913 C15.746734,8.41833131 15.746734,7.90166869 15.4343146,7.58300087 L13.9427814,6.06163704 L13.9427814,6.06163704 C13.7595116,5.87470179 13.6568542,5.623353 13.6568542,5.36156563 Z" id="Combined-Shape" stroke="#FFFFFF" stroke-width="1.5" fill="#FF2741" stroke-linecap="round" stroke-linejoin="round"></path>
                                <path d="M10.658733,5.30123888 C10.9732195,4.97932586 11.4840064,4.97840439 11.7996074,5.2991807 C12.1152084,5.61995702 12.1161118,6.14095966 11.8016252,6.46287273 L7.38791729,10.9808036 C7.01322463,11.3622663 6.40735105,11.3528042 6.04441435,10.9594715 L4.18236804,8.94147882 C3.87701072,8.61054783 3.89248204,8.08978342 4.21692418,7.77831896 C4.54136633,7.4668545 5.05191967,7.48263524 5.35727699,7.81356623 L6.74019848,9.3123074 L10.658733,5.30123888 Z" id="Page-1" fill="#FFFFFF" fill-rule="nonzero"></path>
                            </g>
                        </g>
                    </g>
                </g>
            </g>
        </g>
    </g>
</svg>